# xmcd
#
# Track frame offsets:
#	150
#	7415
#	25670
#	43050
#	62720
#	83587
#	91672
#	109210
#	133372
#	157327
#	176722
#	199392
#	220135
#	241865
#	263437
#
# Disc length: 3726 seconds
#
# Revision: 0
# Processed by: cddbd v1.5.1PL0 Copyright (c) Steve Scherf et al.
# Submitted via: EasyCDDAExtractor 8.2.1.1
#
DISCID=d20e8c0f
DTITLE=Aaron Hall - Adults Only
DYEAR=2005
DGENRE=R&B
TTITLE0=Intro
TTITLE1=Hands On Me
TTITLE2=Serve That Body (feat KansasCali)
TTITLE3=Bout That
TTITLE4=Perfect Woman
TTITLE5=Interlude
TTITLE6=Your
TTITLE7=Sorry
TTITLE8=Still Here
TTITLE9=All I Think About Is You
TTITLE10=Oh
TTITLE11=Video
TTITLE12=Stamina
TTITLE13=Tears In Heaven (feat K-Ci Hailey)
TTITLE14=Betta Watch Your Girl (feat KansasCali) (Bonus)
EXTD=
EXTT0=
EXTT1=
EXTT2=
EXTT3=
EXTT4=
EXTT5=
EXTT6=
EXTT7=
EXTT8=
EXTT9=
EXTT10=
EXTT11=
EXTT12=
EXTT13=
EXTT14=
PLAYORDER=
